<?xml version="1.0" encoding="utf-8"?> <!-- Generator: IcoMoon.io --> <!DOCTYPE svg PUBLIC "-//W3C//DTD SVG 1.1//EN" "http://www.w3.org/Graphics/SVG/1.1/DTD/svg11.dtd"> <svg width="32" height="32" viewBox="0 0 32 32" xmlns="http://www.w3.org/2000/svg" xmlns:xlink="http://www.w3.org/1999/xlink" fill="#000000"><g><path d="M 26.32,2.24L 5.68,2.24 C 3.789,2.24, 2.24,3.789, 2.24,5.68l0,20.64 c0,1.893, 1.549,3.438, 3.438,3.438l 10.438,0 l0-9.867 l-3.296,0 L 12.821,15.594 l 3.296,0 L 16.117,13.44 c0-3.32, 2.451-5.92, 5.581-5.92l 3.037,0 l0,4.854 l-2.718,0 c-0.71,0-0.918,0.408-0.918,0.971l0,2.246 l 3.637,0 l0,4.299 l-3.637,0 L 21.098,29.76 l 5.221,0 c 1.893,0, 3.438-1.547, 3.438-3.438L 29.757,5.68 C 29.76,3.789, 28.213,2.24, 26.32,2.24z"></path></g></svg>