<?xml version="1.0" encoding="utf-8"?> <!-- Generator: IcoMoon.io --> <!DOCTYPE svg PUBLIC "-//W3C//DTD SVG 1.1//EN" "http://www.w3.org/Graphics/SVG/1.1/DTD/svg11.dtd"> <svg width="32" height="32" viewBox="0 0 32 32" xmlns="http://www.w3.org/2000/svg" xmlns:xlink="http://www.w3.org/1999/xlink" fill="#000000"><g><path d="M 26.667,0L 5.334,0 C 2.4,0,0,2.4,0,5.334l0,21.332 C0,29.602, 2.4,32, 5.334,32l 21.333,0 C 29.601,32, 32,29.602, 32,26.666L 32,5.334 C 32,2.4, 29.601,0, 26.667,0z M 26.189,10.682 c 0.010,0.229, 0.015,0.46, 0.015,0.692c0,7.069-5.288,15.221-14.958,15.221c-2.969,0-5.732-0.886-8.059-2.404 c 0.411,0.050, 0.83,0.075, 1.254,0.075c 2.463,0, 4.73-0.855, 6.529-2.29c-2.3-0.043-4.242-1.59-4.911-3.715 c 0.321,0.063, 0.65,0.096, 0.989,0.096c 0.479,0, 0.944-0.066, 1.385-0.188c-2.405-0.492-4.217-2.654-4.217-5.245 c0-0.023,0-0.045, 0.001-0.067c 0.709,0.401, 1.52,0.641, 2.381,0.669c-1.411-0.959-2.339-2.597-2.339-4.453 c0-0.98, 0.259-1.899, 0.712-2.689c 2.593,3.237, 6.467,5.366, 10.836,5.589c-0.090-0.392-0.136-0.8-0.136-1.219 c0-2.954, 2.354-5.349, 5.257-5.349c 1.512,0, 2.879,0.65, 3.838,1.689c 1.198-0.24, 2.323-0.685, 3.338-1.298 c-0.393,1.249-1.226,2.298-2.311,2.96c 1.063-0.129, 2.077-0.417, 3.019-0.842C 28.108,8.986, 27.216,9.928, 26.189,10.682 z"></path></g></svg>