<?xml version="1.0" encoding="utf-8"?> <!-- Generator: IcoMoon.io --> <!DOCTYPE svg PUBLIC "-//W3C//DTD SVG 1.1//EN" "http://www.w3.org/Graphics/SVG/1.1/DTD/svg11.dtd"> <svg width="32" height="32" viewBox="0 0 32 32" xmlns="http://www.w3.org/2000/svg" xmlns:xlink="http://www.w3.org/1999/xlink" fill="#000000"><g><path d="M 17.656,17.57c-0.493-0.286-1.176-0.286-1.733-0.286L 14.098,17.283 l0,3.763 l 1.677,0 c 0.621,0, 1.411,0.043, 1.946-0.331 c 0.493-0.331, 0.77-0.979, 0.77-1.597C 18.49,18.544, 18.147,17.858, 17.656,17.57z M 16.966,14.358 c 0.406-0.309, 0.619-0.862, 0.619-1.37c0-0.552-0.256-1.082-0.725-1.368c-0.493-0.286-1.39-0.221-1.968-0.221L 14.098,11.4 l0,3.312 l 1.051,0 C 15.749,14.71, 16.454,14.755, 16.966,14.358z M 25.96,0.64L 6.038,0.64 C 3.058,0.64, 0.64,3.058, 0.64,6.040l0,19.918 c0,2.982, 2.418,5.4, 5.398,5.4 l 19.92,0 c 2.982,0, 5.4-2.418, 5.4-5.4L 31.358,6.040 C 31.36,3.058, 28.942,0.64, 25.96,0.64z M 16.834,23.851L 10.558,23.851 L 10.558,8.704 l 6.856,0 c 1.986,0, 3.819,1.264, 3.819,3.494c0,1.722-0.962,2.901-2.187,3.269l0,0.043 c 1.819,0.374, 3.117,1.363, 3.117,3.746 C 22.163,21.461, 20.661,23.851, 16.834,23.851z"></path></g></svg>